# xmcd
#
# Track frame offsets:
#   182
#   19957
#   42837
#   66902
#   87032
#   104385
#   123430
#   144060
#   166010
#   187572
#
# Disc length: 2801 seconds
#
# Revision: 0
# Processed by: cddbd v1.5.1PL0 Copyright (c) Steve Scherf et al.
# Submitted via: CD-Datenbank 4.*
#
DISCID=710aef0a
DTITLE=Darryl Tookes - Rendezvous
DYEAR=1900
DGENRE=R and B
TTITLE0=If I Could Just Hold Her Again
TTITLE1=Must Be A Stage
TTITLE2=Let It Run Wild
TTITLE3=Breathless, Restless, Helpless
TTITLE4=Perfect One
TTITLE5=Nikki
TTITLE6=I´Ve Changed
TTITLE7=Paradise (Take Me To The Tropics)
TTITLE8=Yellow Roses On A Gown
TTITLE9=Joyce, The Australian
EXTD=
EXTT0=
EXTT1=
EXTT2=
EXTT3=
EXTT4=
EXTT5=
EXTT6=
EXTT7=
EXTT8=
EXTT9=
PLAYORDER=
